<?xml version="1.0" encoding="iso-8859-1"?>
<!-- Generator: Adobe Illustrator 19.0.0, SVG Export Plug-In . SVG Version: 6.00 Build 0)  -->
<svg version="1.1" id="Layer_1" xmlns="http://www.w3.org/2000/svg" xmlns:xlink="http://www.w3.org/1999/xlink" x="0px" y="0px"
	 viewBox="0 0 503.533 503.533" style="enable-background:new 0 0 503.533 503.533;" xml:space="preserve">
<path style="fill:#415661;" d="M289.871,397.982c-3.151,3.151-9.846,3.938-14.178-0.394c-39.778-40.566-97.674-34.265-125.637-5.908
	c-18.511,18.905-28.751,49.231-42.142,67.742c-7.089,10.24-16.148,20.48-25.994,30.326c0,0-11.815,13.391-33.477,13.391
	C21.662,503.138,0,481.477,0,454.695c0-20.874,13.391-33.477,13.391-33.477l0.394-0.394l0.394-0.394
	c9.452-9.452,19.298-18.117,29.145-25.206c18.511-13.391,48.443-23.631,66.954-42.535c27.963-28.357,34.265-86.646-5.514-126.818
	c-1.969-1.969-3.151-5.12-2.757-7.483c0-2.757,1.575-5.514,3.151-7.089l50.806-51.2l184.32,186.289
	C340.283,346.388,289.871,397.982,289.871,397.982z"/>
<path style="fill:#3A4D57;" d="M105.551,211.298c-1.575,1.575-2.757,4.332-3.151,7.089c0,2.757,0.788,5.514,2.757,7.483
	c39.778,40.172,33.871,98.462,5.514,126.818c-18.511,18.905-48.837,29.145-66.954,42.535c-9.846,7.089-19.692,15.754-29.145,25.206
	l-0.394,0.394l-0.394,0.394c4.726-4.726-13.391,10.24-13.391,33.477c0,13.391,5.514,25.206,14.178,34.265l230.006-229.612
	l-76.406-87.434l-11.815-11.815C156.357,160.098,105.551,211.298,105.551,211.298z"/>
<path style="fill:#F4F0D3;" d="M330.437,4.923l168.566,168.172c5.514,5.514,5.514,14.178,0,19.692L389.908,301.883
	c-5.514,5.514-14.178,5.514-19.692,0l-168.96-168.172c-5.514-5.514-5.514-14.178,0-19.692L310.745,4.923
	C315.865-0.591,324.923-0.591,330.437,4.923z"/>
<path style="fill:#D3D5D6;" d="M200.468,115.2l197.317,178.412l-72.074,68.135L132.726,183.729L200.468,115.2z"/>
<path style="fill:#C8CACB;" d="M200.468,115.2l99.643,89.797L230.4,273.92l-97.674-89.797
	C132.726,184.123,200.468,115.2,200.468,115.2z"/>
<path style="fill:#BDBFC0;" d="M278.055,259.348c-6.302,6.302-6.302,16.148,0,22.449c6.302,6.302,16.148,6.302,22.449,0
	c6.302-6.302,6.302-16.148,0-22.449C294.597,253.44,284.357,253.44,278.055,259.348z M336.345,294.794
	c-6.302-6.302-16.148-6.302-22.449,0c-6.302,6.302-6.302,16.148,0,22.449c6.302,6.302,16.148,6.302,22.449,0
	C342.252,310.942,342.252,301.095,336.345,294.794z"/>
<path style="fill:#E8E4C8;" d="M484.825,158.917c-2.757-2.757-7.089-2.757-9.846,0l-85.071,84.677c-2.757,2.757-2.757,7.089,0,9.846
	c2.757,2.757,7.089,2.757,9.846,0l85.071-84.677C487.582,166.006,487.582,161.674,484.825,158.917z M461.194,135.286
	c-2.757-2.757-7.089-2.757-9.846,0l-85.071,84.677c-2.757,2.757-2.757,7.089,0,9.846c2.757,2.757,7.089,2.757,9.846,0l85.071-84.677
	C463.951,142.375,463.951,138.043,461.194,135.286z M413.538,88.025c-2.757-2.757-7.089-2.757-9.846,0l-85.071,84.283
	c-2.757,2.757-2.757,7.089,0,9.846c2.757,2.757,7.089,2.757,9.846,0l85.071-84.283C416.295,95.114,416.295,90.782,413.538,88.025z
	 M389.908,64.394c-2.757-2.757-7.089-2.757-9.846,0l-85.071,84.283c-2.757,2.757-2.757,7.089,0,9.846
	c2.757,2.757,7.089,2.757,9.846,0l85.071-84.283C392.665,71.483,392.665,67.151,389.908,64.394z M365.883,40.369
	c-2.757-2.757-7.089-2.757-9.846,0l-84.677,84.677c-2.757,2.757-2.757,7.089,0,9.846c2.757,2.757,7.089,2.757,9.846,0l84.677-84.283
	C368.64,47.852,368.64,43.126,365.883,40.369z M342.252,16.738c-2.757-2.757-7.089-2.757-9.846,0l-85.071,84.677
	c-2.757,2.757-2.757,7.089,0,9.846s7.089,2.757,9.846,0l85.071-84.677C345.009,23.828,345.009,19.495,342.252,16.738z"/>
<path style="fill:#E2574C;" d="M499.397,172.702L330.437,4.529c-5.514-5.514-14.178-5.514-19.692,0l-12.209,12.209l74.831,74.043
	c5.908,11.028,4.332,24.812-6.302,34.265l-9.452,11.028c-6.302,5.514-6.302,14.966,0,20.48s16.935,5.12,22.055-0.788l-29.145,28.357
	c-5.908,5.514-5.908,14.572,0,20.086s14.966,5.514,20.874,0l13.391-13.391c-5.514,5.514-5.514,14.572,0,20.086
	c5.514,5.514,14.178,5.514,19.692,0l24.418-25.6c11.028-11.422,29.145-11.422,40.566,0l18.511,18.117L499.397,192
	C504.911,187.274,504.911,178.215,499.397,172.702L499.397,172.702z"/>
<path style="fill:#B4B5B6;" d="M205.588,164.825c6.302,6.302,6.302,16.148,0,22.449c-6.302,6.302-16.148,6.302-22.449,0
	c-6.302-6.302-6.302-16.148,0-22.449C189.44,158.523,199.286,158.523,205.588,164.825z M241.034,200.271
	c6.302,6.302,6.302,16.148,0,22.449c-6.302,6.302-16.148,6.302-22.449,0c-6.302-6.302-6.302-16.148,0-22.449
	C224.886,193.969,235.126,193.969,241.034,200.271z"/>
<path style="fill:#D65348;" d="M367.458,124.652l-9.452,11.028c-6.302,5.514-6.302,14.572,0,20.48
	c5.908,5.12,15.36,5.12,20.874,0.394l9.058-8.665c-5.514,5.514-15.754,6.302-22.055,0.788c-6.302-5.514-6.302-14.572,0-20.48
	l9.452-11.028c10.24-9.058,11.815-23.237,6.302-33.871L306.806,9.649l-7.877,7.877l74.831,73.649
	C379.274,101.809,377.699,115.594,367.458,124.652z M358.794,196.332c-5.514-5.12-5.514-13.785-0.788-19.298l-7.089,6.695
	c-5.908,5.514-5.908,14.572,0,20.086s14.966,5.514,20.874,0l7.877-7.877C373.76,201.846,364.702,201.846,358.794,196.332z
	 M392.665,203.422c-5.514-5.514-5.514-14.572,0-20.086l-7.877,7.877c-5.514,5.514-5.514,14.572,0,20.086s14.178,5.514,19.692,0
	l6.302-6.302C405.268,208.935,397.785,208.148,392.665,203.422z M495.458,195.938l-18.511-17.723
	c-11.028-11.422-29.145-11.422-40.172,0l-5.514,5.514c11.028-9.058,27.569-8.271,37.809,1.969l18.511,17.723L499.003,192
	L495.458,195.938z"/>
<g>
</g>
<g>
</g>
<g>
</g>
<g>
</g>
<g>
</g>
<g>
</g>
<g>
</g>
<g>
</g>
<g>
</g>
<g>
</g>
<g>
</g>
<g>
</g>
<g>
</g>
<g>
</g>
<g>
</g>
</svg>
