<svg width="22" height="18" viewBox="0 0 22 18" fill="none" xmlns="http://www.w3.org/2000/svg">
<path d="M20.7965 17.8182H0.859341C0.558564 17.8182 0.257809 17.6485 0.128904 17.3939C-0.0429681 17.1394 -0.0429681 16.8 0.128904 16.5455L6.70304 4.45455C6.83195 4.2 7.08974 4.0303 7.39052 4.0303C7.6913 4.0303 7.94907 4.1576 8.16391 4.36972L13.1483 11.0303L16.5427 9.12121C16.7575 8.99394 16.9724 8.99396 17.1872 9.03639C17.4021 9.07881 17.6169 9.24851 17.7029 9.46063L21.57 16.5879C21.6989 16.8424 21.6989 17.1818 21.57 17.4364C21.3981 17.6485 21.0973 17.8182 20.7965 17.8182ZM2.32027 16.1212H19.3786L16.5857 10.9879L13.2771 12.8546C12.8904 13.0667 12.4178 12.9818 12.16 12.6424L7.5624 6.44847L2.32027 16.1212Z" fill="#17142A"/>
<path d="M15.7577 6.98485C17.3894 6.98485 18.7122 5.66205 18.7122 4.0303C18.7122 2.39856 17.3894 1.07576 15.7577 1.07576C14.1259 1.07576 12.8031 2.39856 12.8031 4.0303C12.8031 5.66205 14.1259 6.98485 15.7577 6.98485Z" fill="#FEEEAB"/>
<path d="M15.7575 7.9697C13.5783 7.9697 11.8181 6.20954 11.8181 4.0303C11.8181 1.85107 13.5783 0.09091 15.7575 0.09091C17.9368 0.09091 19.6969 1.85107 19.6969 4.0303C19.6969 6.20954 17.9368 7.9697 15.7575 7.9697ZM15.7575 1.76724C14.5003 1.76724 13.4945 2.77305 13.4945 4.0303C13.4945 5.28755 14.5003 6.29336 15.7575 6.29336C17.0148 6.29336 18.0206 5.28755 18.0206 4.0303C18.0206 2.77305 17.0148 1.76724 15.7575 1.76724Z" fill="#FDD224"/>
</svg>
