<svg width="44" height="36" viewBox="0 0 44 36" fill="none" xmlns="http://www.w3.org/2000/svg">
<path d="M42.233 36H1.74512C1.13431 36 0.52355 35.6554 0.261775 35.1385C-0.0872583 34.6215 -0.0872583 33.9323 0.261775 33.4154L13.6123 8.86154C13.8741 8.34462 14.3976 8 15.0084 8C15.6192 8 16.1427 8.2585 16.579 8.68927L26.7011 22.2154L33.5944 18.3385C34.0307 18.08 34.467 18.08 34.9033 18.1662C35.3396 18.2524 35.7759 18.597 35.9504 19.0277L43.8037 33.5015C44.0654 34.0184 44.0654 34.7077 43.8037 35.2246C43.4546 35.6554 42.8438 36 42.233 36ZM4.71192 32.5538H39.3535L33.6817 22.1293L26.9628 25.92C26.1775 26.3508 25.2176 26.1785 24.6941 25.4893L15.3575 12.9107L4.71192 32.5538Z" fill="#F7F7F7"/>
<path d="M32.0002 14C35.3139 14 38.0002 11.3137 38.0002 8C38.0002 4.6863 35.3139 2 32.0002 2C28.6865 2 26.0002 4.6863 26.0002 8C26.0002 11.3137 28.6865 14 32.0002 14Z" fill="#FEEEAB"/>
<path d="M31.9999 16C27.5744 16 23.9998 12.4255 23.9998 8C23.9998 3.57448 27.5744 0 31.9999 0C36.4254 0 39.9998 3.57448 39.9998 8C39.9998 12.4255 36.4254 16 31.9999 16ZM31.9999 3.40425C29.4467 3.40425 27.4041 5.44682 27.4041 8C27.4041 10.5532 29.4467 12.5958 31.9999 12.5958C34.5531 12.5958 36.5956 10.5532 36.5956 8C36.5956 5.44682 34.5531 3.40425 31.9999 3.40425Z" fill="#FDD224"/>
</svg>
